<?xml version="1.0" encoding="UTF-8"?>
<svg version="1.1" xmlns="http://www.w3.org/2000/svg" width="165" height="112">
<path d="M0 0 C2.26454778 1.23962723 4.1373624 2.35437467 5.78100586 4.3671875 C9.25734042 8.27044034 12.26709035 9.24173274 17.49507141 9.54580688 C21.41516364 9.65574585 25.32878887 9.6573643 29.25 9.625 C31.65852197 9.62644497 34.06661248 9.63634811 36.47505188 9.65631104 C37.96752172 9.66646938 39.46013149 9.66485094 40.95256042 9.64984131 C44.65090905 9.6525887 47.46629465 9.74405753 50.5625 11.875 C53.69424917 15.56599009 54.13679903 19.02871486 53.98828125 23.71875 C53.29367559 27.23638598 51.35566834 28.7963631 48.5625 30.875 C45.27730525 31.97006492 42.82586585 31.97460608 39.375 31.9375 C37.74498047 31.92396484 37.74498047 31.92396484 36.08203125 31.91015625 C35.25058594 31.89855469 34.41914062 31.88695312 33.5625 31.875 C33.665625 33.07125 33.76875 34.2675 33.875 35.5 C33.90806697 39.27624811 33.68784252 39.72772254 31.0625 42.8125 C28.35023308 46.13502698 28.29825369 46.41791151 28.5625 50.375 C28.89935109 55.42776628 26.76648196 57.03022164 23.5625 60.875 C23.3569618 63.19045074 23.49967884 65.3698614 23.64453125 67.6875 C23.51257625 71.20629991 21.77891473 73.26745326 19.5625 75.875 C17.28741603 77.01254198 15.983587 77.01868276 13.45507812 77.05200195 C12.18235046 77.07125481 12.18235046 77.07125481 10.88391113 77.09089661 C9.96315796 77.09828354 9.04240479 77.10567047 8.09375 77.11328125 C7.14367065 77.121353 6.19359131 77.12942474 5.21472168 77.13774109 C3.19720284 77.15159268 1.17966047 77.16231001 -0.83789062 77.17016602 C-3.89760185 77.18727688 -6.95620356 77.23114075 -10.015625 77.27539062 C-11.97915875 77.28552671 -13.94270167 77.29403994 -15.90625 77.30078125 C-16.81080933 77.31828934 -17.71536865 77.33579742 -18.64733887 77.35383606 C-28.60645656 77.32048824 -37.15203858 73.65909633 -44.4375 66.875 C-51.91263265 58.85745409 -53.96673105 50.6952974 -53.8527832 39.89404297 C-53.39644235 27.92246714 -48.71977614 21.13135353 -40.4375 12.875 C-39.18646484 11.53501953 -39.18646484 11.53501953 -37.91015625 10.16796875 C-27.9133459 -0.3525574 -14.31930322 -6.87326554 0 0 Z " fill="#FFFFFF" transform="translate(58.4375,25.125)"/>
<path d="M0 0 C5.24105869 0.988879 7.33695649 4.39624334 10.3125 8.625 C18.54094691 21.21759982 21.19665069 34.61169059 18.65625 49.4609375 C16.66381944 57.92876738 13.60076069 64.72154656 8.3125 71.625 C7.86648437 72.21410156 7.42046875 72.80320312 6.9609375 73.41015625 C4.75923525 75.9598695 3.49917053 76.60303876 0.125 77 C-2.6875 76.625 -2.6875 76.625 -4.6875 75.625 C-5.25064148 71.84390722 -5.41310104 69.72639442 -3.26953125 66.47265625 C-2.02476027 64.96247568 -0.77047276 63.46009932 0.4921875 61.96484375 C7.6176174 52.80576112 8.31695868 41.7889972 7.3125 30.625 C5.53167035 22.25001257 1.3174725 15.6299725 -4.6875 9.625 C-4.9375 6.125 -4.9375 6.125 -4.6875 2.625 C-2.6875 0.625 -2.6875 0.625 0 0 Z " fill="#FFFFFF" transform="translate(136.6875,8.375)"/>
<path d="M0 0 C5.92485497 3.66776736 9.57127595 10.22902558 11.9296875 16.66015625 C14.54009318 27.79104341 13.11453477 38.98609009 7.31640625 48.8515625 C6 50.8125 6 50.8125 3.625 53.625 C2.965 53.625 2.305 53.625 1.625 53.625 C1.625 54.285 1.625 54.945 1.625 55.625 C-3.7570598 55.98380399 -3.7570598 55.98380399 -6.3125 54.5 C-7.375 52.625 -7.375 52.625 -7.3125 49.6875 C-6.24190356 46.19021831 -4.95883004 45.13283504 -2.375 42.625 C1.8040499 35.9086698 1.38387502 28.31382168 0.625 20.625 C-0.68529884 16.25733721 -3.02872178 13.10230241 -5.6875 9.4375 C-7.375 6.625 -7.375 6.625 -7.375 3.875 C-6.375 1.625 -6.375 1.625 -4.625 0.1875 C-2.375 -0.375 -2.375 -0.375 0 0 Z " fill="#FFFFFF" transform="translate(128.375,19.375)"/>
<path d="M0 0 C4.26376944 0.58522326 5.5346737 2.12146712 8.1875 5.4375 C11.32350102 11.7205443 10.99753475 18.60194361 10.1875 25.4375 C8.77759627 29.10324969 7.10800692 31.80175906 4.1875 34.4375 C1 35.6875 1 35.6875 -1.8125 35.4375 C-3.75 34.4375 -3.75 34.4375 -4.8125 32.4375 C-4.67235901 28.65369329 -4.30223588 26.17210383 -2.1875 23 C-0.22253838 19.33802607 -0.6905527 16.36847089 -1.8125 12.4375 C-2.79981742 11.09474831 -3.79844743 9.76017727 -4.8125 8.4375 C-5.125 5.3125 -5.125 5.3125 -4.8125 2.4375 C-2.8125 0.4375 -2.8125 0.4375 0 0 Z " fill="#FFFFFF" transform="translate(115.8125,29.5625)"/>
</svg>
