<?xml version="1.0" encoding="UTF-8"?>
<svg version="1.1" xmlns="http://www.w3.org/2000/svg" width="165" height="112">
<path d="M0 0 C3.69721169 2.42629517 6.83014448 5.23939052 10 8.3125 C10.91394531 9.15296875 11.82789063 9.9934375 12.76953125 10.859375 C20.63983207 18.23613248 26.4961636 25.82929056 27.23828125 36.8515625 C27.54163782 48.01289803 25.93896053 56.54713989 18.76171875 65.49609375 C11.63430671 72.84475583 2.64169606 76.59414822 -7.48661804 76.78063965 C-8.84482414 76.78094177 -8.84482414 76.78094177 -10.23046875 76.78125 C-11.66064079 76.79267029 -11.66064079 76.79267029 -13.1197052 76.80432129 C-15.12233881 76.81506812 -17.12502821 76.8179976 -19.12768555 76.81347656 C-22.18958137 76.81249934 -25.24900892 76.85428424 -28.31054688 76.8984375 C-30.26301563 76.9036416 -32.21549306 76.90633274 -34.16796875 76.90625 C-35.07951218 76.92264526 -35.9910556 76.93904053 -36.93022156 76.95593262 C-41.47598789 76.90644206 -43.37843927 76.80374231 -47.05200195 73.90039062 C-49.63145608 70.47361863 -50.06103749 69.21909185 -49.75 65.0625 C-49.67416183 61.09363586 -49.79838721 60.55443535 -52.5 57.3125 C-55.61760774 53.57137071 -55.15156239 52.08214676 -54.84375 47.47265625 C-55.10004877 43.9293257 -57.76104409 41.94327319 -60 39.3125 C-60.43481591 36.5041008 -60.24660135 34.17307564 -60 31.3125 C-61.21236328 31.36470703 -61.21236328 31.36470703 -62.44921875 31.41796875 C-63.51785156 31.44503906 -64.58648437 31.47210938 -65.6875 31.5 C-67.27111328 31.55220703 -67.27111328 31.55220703 -68.88671875 31.60546875 C-73.14817228 31.20445368 -75.50160295 29.49682256 -78.7890625 26.8984375 C-81.14477323 23.81321635 -80.47908458 19.99627197 -80 16.3125 C-78.7892589 13.46725841 -77.90793765 11.93730267 -75.37158203 10.19189453 C-72.02758561 8.95192386 -68.81746765 9.1130064 -65.3046875 9.1796875 C-63.76822717 9.17888018 -62.23176691 9.17621532 -60.6953125 9.171875 C-58.29201656 9.17382969 -55.89115806 9.18718927 -53.48828125 9.23339844 C-42.02766433 9.55261412 -42.02766433 9.55261412 -32.0859375 4.3828125 C-30.70993804 3.04026275 -29.34565278 1.68546502 -28 0.3125 C-19.90515656 -4.66894212 -8.35584658 -4.42368348 0 0 Z " fill="#4E9FE5" transform="translate(133,25.6875)"/>
<path d="M0 0 C2 2 2 2 2.5 5.1875 C1.90660785 9.71211513 0.62588738 10.99022223 -2.40625 14.1796875 C-9.71432665 22.5266574 -10.79554351 33.39323842 -10.20410156 44.03173828 C-9.35342645 52.23525836 -5.26548821 59.46238777 0.25 65.4375 C2.52240639 68.76495221 2.30926916 71.05681815 2 75 C-0.83750355 76.41875178 -2.85787168 76.30597504 -6 76 C-15.53400288 68.86242823 -20.19438452 56.3614882 -22 45 C-23.49214623 29.24148007 -18.88845325 15.82952397 -9.6484375 3.14453125 C-6.73941781 -0.20553336 -4.2980246 -0.6685816 0 0 Z " fill="#4E9FE5" transform="translate(31,9)"/>
<path d="M0 0 C2.375 1.375 2.375 1.375 3.234375 3.609375 C3.42547545 7.36768395 2.13043858 8.94328378 0 12 C-5.22153705 19.59307181 -5.30912266 26.38769003 -4.625 35.375 C-3.35975087 39.72142577 -1.2425558 42.65730002 1.6875 46.0625 C3.375 48.375 3.375 48.375 3.25 51.0625 C2.375 53.375 2.375 53.375 0.375 55.375 C-2.75 55.5 -2.75 55.5 -5.625 55.375 C-5.625 54.715 -5.625 54.055 -5.625 53.375 C-6.615 53.045 -7.605 52.715 -8.625 52.375 C-10.63921767 49.56860526 -12.09433784 46.46604591 -13.625 43.375 C-14.223125 42.199375 -14.82125 41.02375 -15.4375 39.8125 C-18.78104598 30.12974547 -17.4685357 19.00257161 -13.125 9.9453125 C-6.42789745 -1.53045177 -6.42789745 -1.53045177 0 0 Z " fill="#4E9FE5" transform="translate(40.625,19.625)"/>
<path d="M0 0 C2 2 2 2 2.3125 4.875 C2 8 2 8 0.5625 9.875 C-1.73254028 12.99625478 -2.27814162 16.20586301 -2 20 C-1.1646611 21.8566214 -1.1646611 21.8566214 0 23.5625 C2.38484708 27.66145592 2.10433293 29.49064054 1 34 C-1.6875 34.8125 -1.6875 34.8125 -5 35 C-8.56587635 32.18046986 -10.99134403 29.05714365 -13 25 C-13.3984375 21.44140625 -13.3984375 21.44140625 -13.375 17.5625 C-13.38273437 16.28503906 -13.39046875 15.00757813 -13.3984375 13.69140625 C-12.86788033 8.77595008 -11.15630504 5.51515833 -8.1875 1.625 C-5.29364927 -0.52471768 -3.52429721 -0.45969094 0 0 Z " fill="#4E9FE5" transform="translate(52,30)"/>
</svg>
